<svg width="265" height="265" viewBox="0 0 265 265" fill="none" xmlns="http://www.w3.org/2000/svg">
<rect width="265" height="265" rx="132.5" fill="white"/>
<path d="M46.5 99.5C46.5 84.5883 58.5883 72.5 73.5 72.5H191.5C206.412 72.5 218.5 84.5883 218.5 99.5V115.5C218.5 130.412 206.412 142.5 191.5 142.5H73.5C58.5883 142.5 46.5 130.412 46.5 115.5V99.5Z" fill="#E8A817"/>
<path d="M85.9703 94.032C90.1943 94.032 93.6076 95.376 96.2103 98.064C98.8129 100.709 100.114 104.421 100.114 109.2V130H91.1543V110.416C91.1543 107.6 90.4503 105.445 89.0423 103.952C87.6343 102.416 85.7143 101.648 83.2823 101.648C80.8076 101.648 78.8449 102.416 77.3943 103.952C75.9863 105.445 75.2823 107.6 75.2823 110.416V130H66.3223V94.544H75.2823V98.96C76.4769 97.424 77.9916 96.2293 79.8263 95.376C81.7036 94.48 83.7516 94.032 85.9703 94.032ZM141.595 111.504C141.595 112.784 141.509 113.936 141.339 114.96H115.419C115.632 117.52 116.528 119.525 118.107 120.976C119.685 122.427 121.627 123.152 123.931 123.152C127.259 123.152 129.627 121.723 131.035 118.864H140.699C139.675 122.277 137.712 125.093 134.811 127.312C131.909 129.488 128.347 130.576 124.123 130.576C120.709 130.576 117.637 129.829 114.907 128.336C112.219 126.8 110.107 124.645 108.571 121.872C107.077 119.099 106.331 115.899 106.331 112.272C106.331 108.603 107.077 105.381 108.571 102.608C110.064 99.8347 112.155 97.7013 114.843 96.208C117.531 94.7147 120.624 93.968 124.123 93.968C127.493 93.968 130.501 94.6933 133.147 96.144C135.835 97.5947 137.904 99.664 139.355 102.352C140.848 104.997 141.595 108.048 141.595 111.504ZM132.315 108.944C132.272 106.64 131.44 104.805 129.819 103.44C128.197 102.032 126.213 101.328 123.867 101.328C121.648 101.328 119.771 102.011 118.235 103.376C116.741 104.699 115.824 106.555 115.483 108.944H132.315ZM167.719 130L160.423 118.992L153.959 130H144.359L155.943 112.208L144.231 94.544H154.343L161.575 105.488L168.103 94.544H177.703L166.055 112.208L177.831 130H167.719ZM193.129 101.904V119.056C193.129 120.251 193.407 121.125 193.961 121.68C194.559 122.192 195.54 122.448 196.905 122.448H201.065V130H195.433C187.881 130 184.105 126.331 184.105 118.992V101.904H179.881V94.544H184.105V85.776H193.129V94.544H201.065V101.904H193.129Z" fill="white"/>
<path d="M47.318 153.404C51.4993 153.404 54.8273 154.769 57.302 157.5C59.8193 160.188 61.078 163.9 61.078 168.636V189.5H50.198V170.108C50.198 167.719 49.5793 165.863 48.342 164.54C47.1047 163.217 45.4407 162.556 43.35 162.556C41.2593 162.556 39.5953 163.217 38.358 164.54C37.1207 165.863 36.502 167.719 36.502 170.108V189.5H25.558V153.788H36.502V158.524C37.6113 156.945 39.1047 155.708 40.982 154.812C42.8593 153.873 44.9713 153.404 47.318 153.404ZM64.587 171.58C64.587 167.911 65.2697 164.689 66.635 161.916C68.043 159.143 69.9417 157.009 72.331 155.516C74.7203 154.023 77.387 153.276 80.331 153.276C82.8483 153.276 85.0457 153.788 86.923 154.812C88.843 155.836 90.315 157.18 91.339 158.844V153.788H102.283V189.5H91.339V184.444C90.2723 186.108 88.779 187.452 86.859 188.476C84.9817 189.5 82.7843 190.012 80.267 190.012C77.3657 190.012 74.7203 189.265 72.331 187.772C69.9417 186.236 68.043 184.081 66.635 181.308C65.2697 178.492 64.587 175.249 64.587 171.58ZM91.339 171.644C91.339 168.913 90.571 166.759 89.035 165.18C87.5417 163.601 85.707 162.812 83.531 162.812C81.355 162.812 79.499 163.601 77.963 165.18C76.4697 166.716 75.723 168.849 75.723 171.58C75.723 174.311 76.4697 176.487 77.963 178.108C79.499 179.687 81.355 180.476 83.531 180.476C85.707 180.476 87.5417 179.687 89.035 178.108C90.571 176.529 91.339 174.375 91.339 171.644ZM153.849 153.404C158.286 153.404 161.806 154.748 164.409 157.436C167.054 160.124 168.377 163.857 168.377 168.636V189.5H157.497V170.108C157.497 167.804 156.878 166.033 155.641 164.796C154.446 163.516 152.782 162.876 150.649 162.876C148.515 162.876 146.83 163.516 145.593 164.796C144.398 166.033 143.801 167.804 143.801 170.108V189.5H132.921V170.108C132.921 167.804 132.302 166.033 131.065 164.796C129.87 163.516 128.206 162.876 126.073 162.876C123.939 162.876 122.254 163.516 121.017 164.796C119.822 166.033 119.225 167.804 119.225 170.108V189.5H108.281V153.788H119.225V158.268C120.334 156.775 121.785 155.601 123.577 154.748C125.369 153.852 127.395 153.404 129.657 153.404C132.345 153.404 134.734 153.98 136.825 155.132C138.958 156.284 140.622 157.927 141.817 160.06C143.054 158.097 144.739 156.497 146.873 155.26C149.006 154.023 151.331 153.404 153.849 153.404ZM171.935 171.58C171.935 167.911 172.617 164.689 173.983 161.916C175.391 159.143 177.289 157.009 179.679 155.516C182.068 154.023 184.735 153.276 187.679 153.276C190.196 153.276 192.393 153.788 194.271 154.812C196.191 155.836 197.663 157.18 198.687 158.844V153.788H209.631V189.5H198.687V184.444C197.62 186.108 196.127 187.452 194.207 188.476C192.329 189.5 190.132 190.012 187.615 190.012C184.713 190.012 182.068 189.265 179.679 187.772C177.289 186.236 175.391 184.081 173.983 181.308C172.617 178.492 171.935 175.249 171.935 171.58ZM198.687 171.644C198.687 168.913 197.919 166.759 196.383 165.18C194.889 163.601 193.055 162.812 190.879 162.812C188.703 162.812 186.847 163.601 185.311 165.18C183.817 166.716 183.071 168.849 183.071 171.58C183.071 174.311 183.817 176.487 185.311 178.108C186.847 179.687 188.703 180.476 190.879 180.476C193.055 180.476 194.889 179.687 196.383 178.108C197.919 176.529 198.687 174.375 198.687 171.644ZM225.868 180.476H241.356V189.5H213.644V180.796L228.492 162.812H213.772V153.788H241.036V162.492L225.868 180.476Z" fill="#1A1A1A"/>
</svg>
