<svg width="294" height="120" viewBox="0 0 294 120" fill="none" xmlns="http://www.w3.org/2000/svg">
<path d="M61 27C61 12.0883 73.0883 0 88 0H206C220.912 0 233 12.0883 233 27V43C233 57.9117 220.912 70 206 70H88C73.0883 70 61 57.9117 61 43V27Z" fill="#E8A817"/>
<path d="M100.47 21.532C104.694 21.532 108.108 22.876 110.71 25.564C113.313 28.2093 114.614 31.9213 114.614 36.7V57.5H105.654V37.916C105.654 35.1 104.95 32.9453 103.542 31.452C102.134 29.916 100.214 29.148 97.7823 29.148C95.3076 29.148 93.3449 29.916 91.8943 31.452C90.4863 32.9453 89.7823 35.1 89.7823 37.916V57.5H80.8223V22.044H89.7823V26.46C90.9769 24.924 92.4916 23.7293 94.3263 22.876C96.2036 21.98 98.2516 21.532 100.47 21.532ZM156.095 39.004C156.095 40.284 156.009 41.436 155.839 42.46H129.919C130.132 45.02 131.028 47.0253 132.607 48.476C134.185 49.9267 136.127 50.652 138.431 50.652C141.759 50.652 144.127 49.2227 145.535 46.364H155.199C154.175 49.7773 152.212 52.5933 149.311 54.812C146.409 56.988 142.847 58.076 138.623 58.076C135.209 58.076 132.137 57.3293 129.407 55.836C126.719 54.3 124.607 52.1453 123.071 49.372C121.577 46.5987 120.831 43.3987 120.831 39.772C120.831 36.1027 121.577 32.8813 123.071 30.108C124.564 27.3347 126.655 25.2013 129.343 23.708C132.031 22.2147 135.124 21.468 138.623 21.468C141.993 21.468 145.001 22.1933 147.647 23.644C150.335 25.0947 152.404 27.164 153.855 29.852C155.348 32.4973 156.095 35.548 156.095 39.004ZM146.815 36.444C146.772 34.14 145.94 32.3053 144.319 30.94C142.697 29.532 140.713 28.828 138.367 28.828C136.148 28.828 134.271 29.5107 132.735 30.876C131.241 32.1987 130.324 34.0547 129.983 36.444H146.815ZM182.219 57.5L174.923 46.492L168.459 57.5H158.859L170.443 39.708L158.731 22.044H168.843L176.075 32.988L182.603 22.044H192.203L180.555 39.708L192.331 57.5H182.219ZM207.629 29.404V46.556C207.629 47.7507 207.907 48.6253 208.461 49.18C209.059 49.692 210.04 49.948 211.405 49.948H215.565V57.5H209.933C202.381 57.5 198.605 53.8307 198.605 46.492V29.404H194.381V22.044H198.605V13.276H207.629V22.044H215.565V29.404H207.629Z" fill="white"/>
<path d="M61.818 80.904C65.9993 80.904 69.3273 82.2693 71.802 85C74.3193 87.688 75.578 91.4 75.578 96.136V117H64.698V97.608C64.698 95.2187 64.0793 93.3627 62.842 92.04C61.6047 90.7173 59.9407 90.056 57.85 90.056C55.7593 90.056 54.0953 90.7173 52.858 92.04C51.6207 93.3627 51.002 95.2187 51.002 97.608V117H40.058V81.288H51.002V86.024C52.1113 84.4453 53.6047 83.208 55.482 82.312C57.3593 81.3733 59.4713 80.904 61.818 80.904ZM79.087 99.08C79.087 95.4107 79.7697 92.1893 81.135 89.416C82.543 86.6427 84.4417 84.5093 86.831 83.016C89.2203 81.5227 91.887 80.776 94.831 80.776C97.3483 80.776 99.5457 81.288 101.423 82.312C103.343 83.336 104.815 84.68 105.839 86.344V81.288H116.783V117H105.839V111.944C104.772 113.608 103.279 114.952 101.359 115.976C99.4817 117 97.2843 117.512 94.767 117.512C91.8657 117.512 89.2203 116.765 86.831 115.272C84.4417 113.736 82.543 111.581 81.135 108.808C79.7697 105.992 79.087 102.749 79.087 99.08ZM105.839 99.144C105.839 96.4133 105.071 94.2587 103.535 92.68C102.042 91.1013 100.207 90.312 98.031 90.312C95.855 90.312 93.999 91.1013 92.463 92.68C90.9697 94.216 90.223 96.3493 90.223 99.08C90.223 101.811 90.9697 103.987 92.463 105.608C93.999 107.187 95.855 107.976 98.031 107.976C100.207 107.976 102.042 107.187 103.535 105.608C105.071 104.029 105.839 101.875 105.839 99.144ZM168.349 80.904C172.786 80.904 176.306 82.248 178.909 84.936C181.554 87.624 182.877 91.3573 182.877 96.136V117H171.997V97.608C171.997 95.304 171.378 93.5333 170.141 92.296C168.946 91.016 167.282 90.376 165.149 90.376C163.015 90.376 161.33 91.016 160.093 92.296C158.898 93.5333 158.301 95.304 158.301 97.608V117H147.421V97.608C147.421 95.304 146.802 93.5333 145.565 92.296C144.37 91.016 142.706 90.376 140.573 90.376C138.439 90.376 136.754 91.016 135.517 92.296C134.322 93.5333 133.725 95.304 133.725 97.608V117H122.781V81.288H133.725V85.768C134.834 84.2747 136.285 83.1013 138.077 82.248C139.869 81.352 141.895 80.904 144.157 80.904C146.845 80.904 149.234 81.48 151.325 82.632C153.458 83.784 155.122 85.4267 156.317 87.56C157.554 85.5973 159.239 83.9973 161.373 82.76C163.506 81.5227 165.831 80.904 168.349 80.904ZM186.435 99.08C186.435 95.4107 187.117 92.1893 188.483 89.416C189.891 86.6427 191.789 84.5093 194.179 83.016C196.568 81.5227 199.235 80.776 202.179 80.776C204.696 80.776 206.893 81.288 208.771 82.312C210.691 83.336 212.163 84.68 213.187 86.344V81.288H224.131V117H213.187V111.944C212.12 113.608 210.627 114.952 208.707 115.976C206.829 117 204.632 117.512 202.115 117.512C199.213 117.512 196.568 116.765 194.179 115.272C191.789 113.736 189.891 111.581 188.483 108.808C187.117 105.992 186.435 102.749 186.435 99.08ZM213.187 99.144C213.187 96.4133 212.419 94.2587 210.883 92.68C209.389 91.1013 207.555 90.312 205.379 90.312C203.203 90.312 201.347 91.1013 199.811 92.68C198.317 94.216 197.571 96.3493 197.571 99.08C197.571 101.811 198.317 103.987 199.811 105.608C201.347 107.187 203.203 107.976 205.379 107.976C207.555 107.976 209.389 107.187 210.883 105.608C212.419 104.029 213.187 101.875 213.187 99.144ZM240.368 107.976H255.856V117H228.144V108.296L242.992 90.312H228.272V81.288H255.536V89.992L240.368 107.976Z" fill="#1A1A1A"/>
</svg>
