<svg width="405" height="70" viewBox="0 0 405 70" fill="none" xmlns="http://www.w3.org/2000/svg">
<path d="M0 27C0 12.0883 12.0883 0 27 0H145C159.912 0 172 12.0883 172 27V43C172 57.9117 159.912 70 145 70H27C12.0883 70 0 57.9117 0 43V27Z" fill="#E8A817"/>
<path d="M39.4703 21.532C43.6943 21.532 47.1076 22.876 49.7103 25.564C52.3129 28.2093 53.6143 31.9213 53.6143 36.7V57.5H44.6543V37.916C44.6543 35.1 43.9503 32.9453 42.5423 31.452C41.1343 29.916 39.2143 29.148 36.7823 29.148C34.3076 29.148 32.3449 29.916 30.8943 31.452C29.4863 32.9453 28.7823 35.1 28.7823 37.916V57.5H19.8223V22.044H28.7823V26.46C29.9769 24.924 31.4916 23.7293 33.3263 22.876C35.2036 21.98 37.2516 21.532 39.4703 21.532ZM95.0948 39.004C95.0948 40.284 95.0094 41.436 94.8388 42.46H68.9188C69.1321 45.02 70.0281 47.0253 71.6068 48.476C73.1854 49.9267 75.1268 50.652 77.4308 50.652C80.7588 50.652 83.1268 49.2227 84.5348 46.364H94.1988C93.1748 49.7773 91.2121 52.5933 88.3108 54.812C85.4094 56.988 81.8468 58.076 77.6228 58.076C74.2094 58.076 71.1374 57.3293 68.4068 55.836C65.7188 54.3 63.6068 52.1453 62.0708 49.372C60.5774 46.5987 59.8307 43.3987 59.8307 39.772C59.8307 36.1027 60.5774 32.8813 62.0708 30.108C63.5641 27.3347 65.6548 25.2013 68.3428 23.708C71.0308 22.2147 74.1241 21.468 77.6228 21.468C80.9934 21.468 84.0014 22.1933 86.6468 23.644C89.3348 25.0947 91.4041 27.164 92.8548 29.852C94.3481 32.4973 95.0948 35.548 95.0948 39.004ZM85.8148 36.444C85.7721 34.14 84.9401 32.3053 83.3188 30.94C81.6974 29.532 79.7134 28.828 77.3668 28.828C75.1481 28.828 73.2708 29.5107 71.7348 30.876C70.2414 32.1987 69.3241 34.0547 68.9828 36.444H85.8148ZM121.219 57.5L113.923 46.492L107.459 57.5H97.8588L109.443 39.708L97.7308 22.044H107.843L115.075 32.988L121.603 22.044H131.203L119.555 39.708L131.331 57.5H121.219ZM146.629 29.404V46.556C146.629 47.7507 146.907 48.6253 147.461 49.18C148.059 49.692 149.04 49.948 150.405 49.948H154.565V57.5H148.933C141.381 57.5 137.605 53.8307 137.605 46.492V29.404H133.381V22.044H137.605V13.276H146.629V22.044H154.565V29.404H146.629Z" fill="white"/>
<path d="M203.318 20.904C207.499 20.904 210.827 22.2693 213.302 25C215.819 27.688 217.078 31.4 217.078 36.136V57H206.198V37.608C206.198 35.2187 205.579 33.3627 204.342 32.04C203.105 30.7173 201.441 30.056 199.35 30.056C197.259 30.056 195.595 30.7173 194.358 32.04C193.121 33.3627 192.502 35.2187 192.502 37.608V57H181.558V21.288H192.502V26.024C193.611 24.4453 195.105 23.208 196.982 22.312C198.859 21.3733 200.971 20.904 203.318 20.904ZM220.587 39.08C220.587 35.4107 221.27 32.1893 222.635 29.416C224.043 26.6427 225.942 24.5093 228.331 23.016C230.72 21.5227 233.387 20.776 236.331 20.776C238.848 20.776 241.046 21.288 242.923 22.312C244.843 23.336 246.315 24.68 247.339 26.344V21.288H258.283V57H247.339V51.944C246.272 53.608 244.779 54.952 242.859 55.976C240.982 57 238.784 57.512 236.267 57.512C233.366 57.512 230.72 56.7653 228.331 55.272C225.942 53.736 224.043 51.5813 222.635 48.808C221.27 45.992 220.587 42.7493 220.587 39.08ZM247.339 39.144C247.339 36.4133 246.571 34.2587 245.035 32.68C243.542 31.1013 241.707 30.312 239.531 30.312C237.355 30.312 235.499 31.1013 233.963 32.68C232.47 34.216 231.723 36.3493 231.723 39.08C231.723 41.8107 232.47 43.9867 233.963 45.608C235.499 47.1867 237.355 47.976 239.531 47.976C241.707 47.976 243.542 47.1867 245.035 45.608C246.571 44.0293 247.339 41.8747 247.339 39.144ZM309.849 20.904C314.286 20.904 317.806 22.248 320.409 24.936C323.054 27.624 324.377 31.3573 324.377 36.136V57H313.497V37.608C313.497 35.304 312.878 33.5333 311.641 32.296C310.446 31.016 308.782 30.376 306.649 30.376C304.515 30.376 302.83 31.016 301.593 32.296C300.398 33.5333 299.801 35.304 299.801 37.608V57H288.921V37.608C288.921 35.304 288.302 33.5333 287.065 32.296C285.87 31.016 284.206 30.376 282.073 30.376C279.939 30.376 278.254 31.016 277.017 32.296C275.822 33.5333 275.225 35.304 275.225 37.608V57H264.281V21.288H275.225V25.768C276.334 24.2747 277.785 23.1013 279.577 22.248C281.369 21.352 283.395 20.904 285.657 20.904C288.345 20.904 290.734 21.48 292.825 22.632C294.958 23.784 296.622 25.4267 297.817 27.56C299.054 25.5973 300.739 23.9973 302.873 22.76C305.006 21.5227 307.331 20.904 309.849 20.904ZM327.935 39.08C327.935 35.4107 328.617 32.1893 329.983 29.416C331.391 26.6427 333.289 24.5093 335.679 23.016C338.068 21.5227 340.735 20.776 343.679 20.776C346.196 20.776 348.393 21.288 350.271 22.312C352.191 23.336 353.663 24.68 354.687 26.344V21.288H365.631V57H354.687V51.944C353.62 53.608 352.127 54.952 350.207 55.976C348.329 57 346.132 57.512 343.615 57.512C340.713 57.512 338.068 56.7653 335.679 55.272C333.289 53.736 331.391 51.5813 329.983 48.808C328.617 45.992 327.935 42.7493 327.935 39.08ZM354.687 39.144C354.687 36.4133 353.919 34.2587 352.383 32.68C350.889 31.1013 349.055 30.312 346.879 30.312C344.703 30.312 342.847 31.1013 341.311 32.68C339.817 34.216 339.071 36.3493 339.071 39.08C339.071 41.8107 339.817 43.9867 341.311 45.608C342.847 47.1867 344.703 47.976 346.879 47.976C349.055 47.976 350.889 47.1867 352.383 45.608C353.919 44.0293 354.687 41.8747 354.687 39.144ZM381.868 47.976H397.356V57H369.644V48.296L384.492 30.312H369.772V21.288H397.036V29.992L381.868 47.976Z" fill="#1A1A1A"/>
</svg>
